<?xml version="1.0" standalone="no"?>
<!DOCTYPE svg PUBLIC "-//W3C//DTD SVG 20010904//EN"
 "http://www.w3.org/TR/2001/REC-SVG-20010904/DTD/svg10.dtd">
<svg version="1.0" xmlns="http://www.w3.org/2000/svg"
 width="225.000000pt" height="225.000000pt" viewBox="0 0 225.000000 225.000000"
 preserveAspectRatio="xMidYMid meet">
<metadata>
Created by potrace 1.10, written by Peter Selinger 2001-2011
</metadata>
<g transform="translate(0.000000,225.000000) scale(0.100000,-0.100000)"
fill="#000000" stroke="none">
<path d="M976 2180 c-236 -38 -442 -142 -606 -309 -73 -73 -160 -185 -160
-205 0 -19 21 1 60 57 92 130 224 247 360 318 36 19 67 36 70 39 3 3 31 14 63
23 190 59 327 76 464 58 54 -8 106 -15 116 -17 34 -6 192 -55 211 -66 11 -6
40 -22 65 -36 144 -79 257 -178 347 -303 50 -69 74 -93 74 -73 0 19 -96 142
-164 210 -194 195 -439 300 -716 309 -69 2 -152 0 -184 -5z"/>
<path d="M290 1650 c-114 -9 -148 -18 -160 -40 -18 -34 -10 -53 45 -104 l55
-51 25 -115 c15 -67 39 -142 58 -180 28 -56 39 -68 82 -90 47 -23 60 -25 200
-25 194 0 243 12 306 75 51 51 79 113 104 233 9 39 20 82 26 95 21 51 135 65
174 22 9 -10 28 -64 41 -119 42 -177 103 -266 203 -291 25 -7 102 -14 171 -17
162 -7 240 10 286 62 34 38 71 138 99 270 16 76 20 83 71 130 53 49 66 81 46
112 -30 47 -557 52 -796 8 -100 -19 -289 -19 -397 0 -165 28 -459 40 -639 25z
m477 -20 c65 -6 129 -16 142 -23 33 -16 412 -17 432 -1 45 37 641 45 726 9 39
-15 42 -20 37 -44 -4 -14 -26 -44 -50 -66 -41 -38 -45 -46 -69 -149 -65 -272
-96 -299 -339 -297 -142 1 -218 16 -263 51 -36 28 -81 96 -89 135 -3 16 -10
35 -14 40 -5 6 -15 45 -24 89 -9 43 -24 89 -34 102 -32 44 -149 45 -189 1 -13
-13 -28 -54 -38 -102 -9 -44 -19 -90 -22 -102 -3 -13 -9 -23 -14 -23 -5 0 -9
-7 -9 -15 0 -22 -47 -100 -59 -97 -6 1 -10 -3 -9 -9 2 -7 -18 -23 -43 -36 -55
-29 -183 -42 -320 -32 -159 11 -188 43 -245 269 -32 130 -35 136 -79 178 -73
70 -60 103 50 122 66 11 396 11 522 0z"/>
<path d="M1271 1374 c0 -11 3 -14 6 -6 3 7 2 16 -1 19 -3 4 -6 -2 -5 -13z"/>
<path d="M116 1463 c-68 -208 -72 -426 -11 -636 104 -360 394 -639 760 -732
363 -92 745 13 1011 279 274 275 375 657 273 1036 -22 82 -34 108 -45 98 -4
-4 2 -38 13 -75 12 -37 26 -89 32 -116 14 -61 14 -322 0 -384 -21 -92 -82
-273 -95 -284 -8 -6 -14 -15 -14 -20 0 -22 -96 -155 -160 -222 -58 -62 -234
-197 -255 -197 -4 0 -19 -8 -33 -18 -25 -17 -184 -71 -257 -88 -58 -13 -328
-16 -384 -4 -31 6 -63 13 -71 14 -8 2 -22 6 -30 9 -8 3 -49 15 -90 28 -41 12
-87 30 -102 40 -14 11 -29 19 -32 19 -18 0 -168 111 -224 164 -90 86 -148 167
-229 321 -25 47 -65 199 -80 304 -14 98 -15 129 -4 220 7 58 16 120 21 136 5
17 16 54 25 84 20 70 3 92 -19 24z"/>
<path d="M151 844 c0 -11 3 -14 6 -6 3 7 2 16 -1 19 -3 4 -6 -2 -5 -13z"/>
<path d="M570 785 c-18 -21 15 -69 109 -157 87 -82 186 -138 291 -164 100 -25
283 -16 375 20 94 36 180 94 252 169 81 85 99 113 83 132 -17 21 -21 20 -92
-24 -171 -107 -394 -159 -567 -132 -111 17 -253 68 -344 123 -44 26 -83 48
-87 48 -4 0 -13 -7 -20 -15z m1090 -19 c0 -8 -6 -21 -12 -28 -7 -7 -31 -33
-53 -58 -42 -49 -97 -93 -159 -128 -42 -25 -156 -73 -156 -67 0 3 -12 0 -27
-6 -16 -6 -73 -10 -128 -10 -201 1 -386 94 -513 259 -13 18 -23 34 -21 37 3 2
52 -20 111 -50 247 -125 425 -144 678 -75 25 7 47 11 49 10 2 -1 7 2 10 7 3 5
44 26 91 48 47 21 87 42 88 47 2 4 10 8 18 8 8 0 14 5 14 10 0 6 2 10 5 10 3
0 5 -6 5 -14z"/>
</g>
</svg>
